# xmcd CD database file generated by Grip 2.99.0
# 
# Track frame offsets:
#       150
#       18127
#       37454
#       59507
#       79832
#       93868
#       110846
#       129390
#       148447
#       165425
#       186101
#       209261
#       225996
#       247698
#       262517
#       282141
#       296879
# 
# Disc length: 4238 seconds
# 
# Revision: 0
# Processed by: cddbd v1.4PL0 Copyright (c) Steve Scherf et al.
# Submitted via: Grip 2.99.0
# 
DISCID=ed108c11
DTITLE=Giberto Gil - Grandes Sucessos
DYEAR=2000
DGENRE=Country
TTITLE0=Madalena
TTITLE1=Esperando Na Janela
TTITLE2=Só Quero Um Xodó
TTITLE3=Não Chore Mais
TTITLE4=Refazenda
TTITLE5=Tenho Sede
TTITLE6=O Super Homem - A Cançaão
TTITLE7=Marina
TTITLE8=Toda Menina Baiana
TTITLE9=Aquele Abraço
TTITLE10=Tempo Rei
TTITLE11=Domingo No Parque
TTITLE12=Vamos Fugir
TTITLE13=Andar Com Pé
TTITLE14=Só Chamei Porque Te Amo
TTITLE15=Drão
TTITLE16=Realce
EXTD=YEAR: 2000 ID3G: 2
EXTT0=
EXTT1=
EXTT2=
EXTT3=
EXTT4=
EXTT5=
EXTT6=
EXTT7=
EXTT8=
EXTT9=
EXTT10=
EXTT11=
EXTT12=
EXTT13=
EXTT14=
EXTT15=
EXTT16=
PLAYORDER=
